# xmcd
#
# Track frame offsets:
#	150
#	21001
#	38375
#	59402
#	74830
#	92883
#	110121
#	132203
#	147350
#	165419
#	184113
#	196804
#	219131
#	235387
#	250208
#
# Disc length: 3534 seconds
#
# Revision: 0
# Processed by: cddbd v1.5.1PL0 Copyright (c) Steve Scherf et al.
# Submitted via: dBpowerAMP V4.0
#
DISCID=d50dcc0f
DTITLE=MARY  GAUTHIER - mary  gauthier
DYEAR=1900
DGENRE=
TTITLE0=long  way  to  fall
TTITLE1=Rock  and  Roll  lies
TTITLE2=Walk  through  the  Fire
TTITLE3=the  Sun  fades  the  colour  of  everthing 
TTITLE4=Goddamn  HIV
TTITLE5=I  Drink
TTITLE6=Christmas  in  Paradise
TTITLE7=Ways  of  the  World
TTITLE8=Olde  love  never  dies
TTITLE9=You'  all I wanna  do
TTITLE10=Ever   Easy
TTITLE11=Skelton  Town
TTITLE12=Mama  Louisiana
TTITLE13=I Dont  know  nothin' about  love
TTITLE14=The  other  side  of  free
EXTD=\nMary  Gauthier/Long  way  to  fall
EXTT0=
EXTT1=
EXTT2=
EXTT3=
EXTT4=
EXTT5=
EXTT6=
EXTT7=
EXTT8=
EXTT9=
EXTT10=
EXTT11=
EXTT12=
EXTT13=
EXTT14=
PLAYORDER=
